<svg viewBox="0 0 5122 1840" xmlns="http://www.w3.org/2000/svg" fill-rule="evenodd" clip-rule="evenodd" stroke-linejoin="round" stroke-miterlimit="2"><path d="M3482.09 1069.16c.125-.066.141.056.038.375-.047.819-.213-.197-.169-.625l-29.541 14.659c-15.993 4.419-39.156 22.025-56.331 32.075-19.728 11.55-39.503 26.606-56.812 41.413-34.61 29.612-69.147 70.337-92.419 109.584-52.85 89.097-116.538 168.8-212.96 216.909-57.487 28.682-104.878 1.694-162.775-5.762-57.128-7.363-110.293-25.259-166.931-34.241-59.247-9.4-118.075-29.018-177.697-37.45-61.118-8.643-123.181-8.784-185.356-12.715-65.225-4.122-125.916-15.475-191.353-17.603-30.859-1.004-58.875.087-89.775.046-13.65-.018-28.728-1.331-42.247-.137-12.528 1.103-28.95 6.037-40.487 3.612-3.297-.693-10.085.613-13.444.8-8.1.454-15.61 1.563-23.697 2.885-15.413 2.525-22.366-13.169-35.253-19.778-16.444-8.435-36.95-9.303-54.556-10.182-8.554-.425-16.894.222-25.141.988-8.744.816-16.572 4.103-25.103 5.797-6.231 1.24-15.288 3.131-21.353 1.1-7.469-2.503-13.882-8.472-19.241-14.153-12.425-13.169-25.687-24.2-35.834-39.113-10.366-15.228-20.272-30.325-29.725-45.878-9.016-14.828-17.6-31.909-28.969-45.066-5.763-6.668-11.969-13.596-18.597-19.54-5.831-5.228-14.037-10.328-18.6-16.653-5.356-7.428 1.281-13.385 6.15-19.103 5.569-6.55 11.384-13.007 17.013-19.469 6.025-6.919 12.965-13.135 19.081-19.903 4.606-5.097 9.619-12.96 15.284-16.785.394-.947-.297-.147-.659-.481l5.715-3.591c5.075-.971 10.729 2.26 15.841 3.497 7.253 1.75 14.722 2.138 22 3.547 12.106 2.344 24.475 3.922 36.091 7.678 15.165 4.9 30.159 5.713 45.747 7.282 15.921 1.6 30.262 4.771 45.743 7.087 30.635 4.581 61.882 4.3 93.344 2.744 29.894-1.478 59.934-2.831 89.728-8.263 31.76-5.79 65.388-10.162 95.103-23.815 28.525-13.11 59.91-15.882 89.097-25.941 27.203-9.378 56.494-12.85 83.416-22.441 13.09-4.665 26.262-8.59 38.725-14.99 14.815-7.606 22.925-18.722 33.644-30.366 10.109-10.987 24.018-4.597 35.887-2.172 13.191 2.694 29.678 2.222 42.228-2.4 10.675-3.925 19.691-10.95 30.147-15.622 12.913-5.771 27.609-6.953 41.188-11.471 11.946-3.975 24.006-8.719 35.181-14.325 7.169-3.597 19.965-7.135 28.187-13.335.56-.419 6.297-5.119 6.916-5.453 5.719-3.097 10.325-7.866 16.1-10.906 5.272-2.785 11.006-5.935 15.666-9.794 10.443-8.666 24.25-13.281 35.893-19.912 10.391-5.925 22.319-10.244 33.335-14.497 10.768-4.157 21.787-8.35 33.006-11.828 10.716-3.322 19.55-8.522 29.706-13.597 9.994-4.994 18.41-14.447 24.185-23.691 2.737-4.375 4.196-9.275 6.759-13.616 2.769-4.684 7.303-9.518 11.634-12.859 9.638-7.441 18.535-10.712 30.697-9.5 10.644 1.059 21.138 1.072 31.681 2.641 10.725 1.593 21.529 3.84 32.35 5.462 24.122 3.619 47.844 9.878 71.291 16.835 11.9 3.531 27.806 5.009 42.684 7.125-1.262 3.89-2.143 8.025-2.578 12.484-1.187 12.228 1.235 22.709 8.097 32.847 3.378 4.99 8.41 8.822 11.403 13.89 1.713 2.9 2.435 6.504 4.66 9.175 1.765 2.125 4.493 4.094 6.606 5.866 8.159 6.863 18.122 11.622 28.337 15.166 4.957 1.715 9.335 3.065 14.466 4.106 5.378 1.091 10.391.184 15.738-.331 11.406-1.097 21.115-1.482 30.296-9.553 7.741-6.81 10.988-16.238 16.785-24.322.294-.394.472-.697.487-1.141l19.403 8.034c5.282.988 18.716 4.047 24.425 5.313 8.566 1.903 17.379 3.147 25.747 5.212 18.035 4.45 36.007 8.235 54.128 12.05 21.56 4.541 46.335 7.094 67.329 15.235 20.656 8.009 40.518 17.587 60.553 27.412 21.025 10.313 34.49 25.15 49.837 42.344 8.588 9.616 18.138 15.194 22.828 27.759 4.007 10.732 6.285 22.644 10.757 32.672-.107.147-.654.25-.76.663m-1560.23 390.553c-1.784 7.759-5.012 15.35-7.459 22.903-1.082 3.341-2.407 6.397-4.228 9.366-1.569 2.559-3.216 6.362-5.419 8.387 0 0-27.419 2.085-28.728.66-.672-.732 1.772-10.557 2.175-12.116.472-1.831 1.156-3.481 1.55-5.431.778-3.828.706-10.682 1.318-14.472 1.375-8.547 1.166-5.194 2.85-13.581a142.96 142.96 0 017.4-24.797c2.535-6.325 5.622-18.135 14.519-16.45 4.066.768 8.256 3.328 10.372 6.8 2.053 3.378 4.294 8.447 5.216 12.29 2.197 9.147 2.568 17.132.434 26.441m-63.609-19.263c-1.485 9.882-3.947 19.763-5.916 29.625-.566 2.822-.962 5.885-1.8 8.647-.984 3.263-2.841 6.294-3.737 9.597-1.288 4.731-.632 9.863-1.694 14.463 0 0-28.841 7.159-33.553.218-1.65-2.428.912-7.718 1.084-11.193.216-4.272.225-8.588.009-12.916-.453-9.169-.856-18.778 1.532-27.65 2.381-8.856 3.515-19.059 10.143-25.872 5.741-5.9 17.757-13.128 26.047-9.487 9.263 4.068 9.119 16.347 7.885 24.568m-72.969 14.975c-.853 4.547-1.644 9.091-2.459 13.591-.794 4.353-2.282 8.678-2.638 13.153-.328 4.1-.428 8.097-1.297 12.06-.962 4.356-1.394 8.781-2.206 13.168-.069.372-.013.51-.222.647-7.181 4.766-32.109 10.056-34.428 1.756-.388-1.393 1.562-9.328 1.766-11.187.446-4.078 1.084-7.922 1.084-12.059 0-7.982-.038-14.938 1.487-22.538 1.482-7.378 3.341-14.878 4.922-22.2 1.447-6.709 5.416-15.784 11.563-19.694 6.69-4.25 17.275-3.768 21.556 3.472 5.078 8.585 2.603 20.628.872 29.831m-223.078-33.096c-28.753 5.309-57.063 12.315-85.875 16.35-15.56 2.178-23.469-.9-35.772-10.054-11.15-8.296-21.397-11.528-35.544-11.712-25.128-.331-50.103 4.428-72.725-2.534-25.725-7.913-27.987-39.397-29.431-62.46-3.378-53.987-8.559-105.456-6.147-159.934 1.147-25.903.775-52.328.775-79.066 0-22.569-5.8-56.994 5.394-76.534 5.578-9.725 18.422-16.263 27.906-21.716 10.234-5.89 19.088-13.49 28.578-20.84 20.828-16.138 36.841-37.957 58.185-53.197 8.918-6.372 20.39-10.71 27.668-19.532l2.319.772c44.166 23.988 77.313 66.122 115.253 98.232 10.2 8.634 21.075 16.703 30.972 25.353 4.025 3.512 9.159 6.318 13.906 8.7 7.628 3.825 7.985 6.022 4.038 14.675-5.088 11.162-16.91 18.4-25.756 26.143-8.944 7.835-15.988 17.479-23.375 27.225-7.329 9.666-14.097 19.538-21.25 29.563-7.644 10.706-22.832 20.556-15.125 33.866 6.171 10.659 17.709 18.543 25.718 27.821 8.444 9.785 17.313 18.919 26.51 27.825 17.675 17.125 35.512 33.857 52.425 51.672 15.772 16.619 33.272 31.6 48.922 47.935 8.693 9.072 17.518 18.134 25.912 27.453 7.038 7.809 20.519 18.175 24.241 27.35-54.535 9.606-111.532 16.265-167.722 26.644m-112.928 74.112c-.613 6.281-.625 12.666-1.491 18.969-.628 4.587-1.591 8.962-2.459 13.497-.816 4.275-1.288 8.659-2.138 12.928-.409 2.053-.906 3.644-1.869 5.484-.712 1.356-2.106 3.656-1.915 5.041h-39.691c-3.165-.091 2.753-10.197 3.347-11.397 2.344-4.734 3.228-9.841 4.491-14.891 2.828-11.278 8.918-21.112 13.165-31.828 3.5-8.834 8.897-16.956 15.01-24.122 2.028-2.381 6.909-6.937 10.262-7.018 2.638-.066 5.603 6.6 6.138 8.984 1.75 7.822-2.1 16.662-2.85 24.353m-68.863 11.85c-2.515 8.634-4 17.575-5.312 26.356-.55 3.682-1.157 7.288-1.925 10.913-.578 2.728-.772 8.147-2.413 10.087l-28.287 3.069c.143.197-.057-9.647 1.703-15.344 1.687-5.447 3.35-10.722 4.875-16.175 2.875-10.265 3.556-20.65 5.972-30.965 1.206-5.153 2.097-11.028 6.54-14.432 3.816-2.928 9.541-2.837 13.791-1.153 11.856 4.694 7.866 18.007 5.056 27.644m-74.562 14.934c-1.369 4.747-2.338 9.497-4.007 14.172-1.609 4.507-3.293 8.922-4.712 13.482-.65 2.1-1.097 6.618-2.025 7.837l-34.213-.653c1.416-2.766 1.682-6.244 3.119-9.213 1.606-3.312 2.388-6.525 3.894-9.871 3.597-7.975 7.325-15.844 11.028-23.85 2.528-5.46 5.666-10.447 8.338-15.832 2.509-5.059 4.278-10.637 8.715-14.487 3.444-2.985 7.788-4.331 11.838-1.906 4.437 2.656 5.025 7.521 5.262 12.387.466 9.484-4.65 18.984-7.237 27.934m76.275-744.831c-5.482-10.75-10.566-21.422-15.5-32.359-6.428-14.25-31.113-55.566-7.622-64.875 12.606-4.997 21.647 4.172 26.587 14.703 4.525 9.65 9.253 13.691 12.816 23.703 2.531 7.113 7.278 21.469 10.256 28.406 6.853 15.978 23.256 35.841-.631 47.747-12.875 6.419-21.031-7.769-25.906-17.325m-44.05-157.8c-.16 4.875-2.71 14.803-7.294 17.188-4.972 2.584-10.775-1.713-14.538-4.497-19.331-14.3-22.159-37.231-32.312-57.578-4.975-9.972-12.056-21.857-13.203-32.991-1.266-12.266 6.122-24.425 18.481-25.066 14.328-.746 16.288 14.735 20.447 25.76 1.978 5.244 4.919 10.89 7.262 15.809 1.15 2.413 2.429 4.588 3.797 6.747.516.816 6.11 10.8 3.482 12.134-1.819.929 2.443 5.632 3.009 7.591.737 2.55 3.028 13.506 4.253 15.713 5.578 10.075 7.034 6.362 6.616 19.19m69.297-34.312c4.918 7.806 10.693 17.206 11.896 26.406 1.529 11.666-9.043 22.831-17.031 15.037-18.112-17.678-32.215-35.984-39.056-53.393-4.359-11.088 6.8-24.453 20.459-20.394 8.366 2.487 15.719 15.769 15.175 16.487-2.712 3.597 6.153 12.047 8.557 15.857M1258.626 321.35c5.409-3.375 14.047 7.319 19.806 9.682 8.234 3.375 16.084 7.715 24.103 11.784 9.681 4.906 18.913 9.803 28.513 14.853 5.565 2.928 11.015 6.135 16.925 8.247 6.359 2.278 12.768 4.038 18.471 7.716 19.625 12.668 41.15 23.853 61.282 36.625 11.578 7.343 23.887 13.656 35.447 21.134 13.109 8.481 28.653 14.116 43.15 20.016 27.296 11.103 52.95 24.643 78.368 39.362 6.566 3.8 13.903 5.778 20.225 9.938 3.557 2.337 6.81 4.759 10.516 6.806 9.412 5.203 19.359 10.347 29.887 13.291 10.744 3 19.782 9.575 30.394 13.225 10.831 3.725 21.485 8.359 32.253 12.078 14.491 5.006 29.932 9.634 43.988 15.868 18.397 8.163 39.953 11.666 55.022 25.522 10.478 9.635 26.375 19.807 24.534 36.188-1.512 13.456-13.003 22.015-25.425 24.984-17.428 4.169-31.728 3.385-48.4-4.4-11.872-5.547-22.491-13.697-34.219-19.487-11.312-5.585-21.44-12.975-32.475-18.678-10.703-5.538-21.306-11.707-31.872-17.079-11.775-5.987-23.831-11.237-35.362-18.087-6.4-3.8-13.997-5.916-20.088-10.197-3.621-2.547-7.193-4.919-10.928-7.131-9.581-5.675-19.022-11.491-28.247-17.835-8.553-5.875-16.962-11.928-25.537-17.831-9.038-6.219-19.753-9.706-28.594-16.259-15-11.122-31.453-19.981-47.444-29.291-14.493-8.444-29.906-14.719-44.412-23.312-14.347-8.5-29.059-16.238-41.5-27.297-12.094-10.75-26.159-18.891-38.956-28.694-6.041-4.625-12.51-7.903-19.232-11.437-6.931-3.647-12.415-9.219-18.803-13.766-11.2-7.972-23.853-14.659-32.147-25.853-3.375-4.553-14.05-17.688-9.243-20.685m-32.919-187.39c-13.109-1.685-26.363-2.731-39.859-2.731 0 0-52.029.459-50.779-12.56.844-8.778 47.557-5.234 56.241-4.365 11.575 1.156 23.3 1.106 35.081 1.625 12.4.543 24.282 2.587 36.569 3.275 26.575 1.484 53.194 5.753 79.747 8.203 31.472 2.903 64.412 9.484 95.528 16.365 30.406 6.728 61.841 9.213 92.659 13.638 12.119 1.74 23.7 6.325 35.563 8.628 12.116 2.359 24.881 5.166 36.131 7.659 45.013 9.975 90.885 15.797 133.681 30.138 6.954 2.328 16.935 4.715 20.872 11.909 3.928 7.178 1.585 17.853.819 25.785-1.219 12.659-9.034 16.609-20.991 14.359-10.456-1.966-20.837-4.491-30.909-7.672-20.472-6.466-42.369-11.097-63.187-17.078-28.066-8.063-56.404-16.144-85.032-23.056-30.387-7.338-59.943-19.307-90.75-24.966-28.172-5.172-56.65-9.072-84.153-16.806-11.137-3.131-21.422-8.297-32.75-10.494-13.709-2.662-27.781-4.278-41.512-6.553-5.722-.947-11.36-2.838-17.472-3.838-7.488-1.228-15.191-1.15-22.785-2.318-14.437-2.225-28.575-7.332-42.712-9.147m520.7 233.709c-10.381.225-20.578-4.981-30.456-7.79-10.797-3.072-21.003-7.479-31.644-11.197-29.291-10.238-58.472-20.066-87.644-30.591-19.503-7.034-38.925-14.722-58.469-21.947-9.471-3.5-18.928-6.578-28.487-9.8-11.144-3.753-22.75-6.131-33.881-9.859-17.71-5.931-35.56-11.125-53.06-17.622-15.422-5.725-134.475-50.644-134.475-50.644-1.018-.065-12.172-6.778-12.556-7.815-2.528-6.81 29.378 3.878 36.581 4.962 9.932 1.497 19.666 3.731 29.447 5.597 25.735 4.912 50.706 12.412 76.335 17.322 20.431 3.909 41.934 5.244 61.956 10.906 16.865 4.772 33.244 8.119 50.509 11.469 17.319 3.362 33.381 11.328 50.51 15.544 16.903 4.162 33.781 8.856 50.684 12.465 14.084 3.013 27.887 8.756 42.028 12.41 12.534 3.24 24.078 7.356 36.028 11.606 9.331 3.319 19.16 2.897 28.403 6.137 8.785 3.082 15.597 9.71 20.616 17.457 7.275 11.24 5.991 40.993-12.425 41.39m46.584 123.563c-4.034 8.075-12.403 4.537-19.034 2.309-8.431-2.831-16.722-6.091-25.181-8.909-18.25-6.082-36.153-11.2-54.472-16.722-21.544-6.494-43.281-12.535-64.813-19.472-9.528-3.075-18.568-8.141-27.95-11.775-9.993-3.872-20.7-7.072-30.459-11.563-16.516-7.596-33.325-11.315-49.728-18.384-15.513-6.684-32.066-11.9-47-19.794-14.525-7.672-29.403-14.831-44.978-20.109-7.607-2.578-13.797-7.456-21.144-10.388-6.9-2.753-13.844-4.784-20.219-8.671-5.887-3.588-12.322-6.094-18.487-9.122-6.369-3.125-11.969-7.444-18.141-11.01-7.037-4.065-14.459-7.581-20.706-12.3-6.297-4.753-13.688-7.893-19.703-13.247-8.885-7.896-19.957-13.987-24.625-24.731-1.375-3.169-4.835-11.406-2.2-13.644 5.375-4.565 12.287 5.788 19.022 7.385 7.112 1.684 14.94 2.737 21.687 5.5 15.572 6.381 30.866 14.925 46.791 20.025 11.281 3.609 22.768 6.787 33.962 10.54 11.31 3.788 22.144 8.994 33.356 12.966 23.438 8.3 47.457 16.325 70.504 25.55 10.256 4.103 20.85 7.2 31.321 10.991 10.891 3.943 21.382 9.434 32.157 13.875 12.747 5.25 26.362 8.009 39.043 13.628 7.425 3.29 14.7 6.109 22.019 9.253 36.647 15.753 75.65 27.581 111.781 42.762 11.963 5.029 26.972 7.797 37.054 16.31 8.868 7.487 15.575 27.872 10.143 38.747m32.797-307.616c10.922 1.556 14.356 9.228 8.069 18.472-5.884 8.65-8.991 12.897-.009 20.991 5.925 5.343 12.54 8.865 19.106 13.121 4.909 3.179 14.737 9.763 18.7 14.06 2.319 2.512 11.156 8.353 15.319 9.828 8.709 3.094 16.784 5.841 20.309 15.156 2.666 7.044 3.1 17.022-5.172 21.291-13.922 7.184-36.991-12.931-48.897 4.109-14.159 20.266 58.478 53.888 68.541 66.6 5.234 6.613 6.462 16.06 1.378 23.36-4.541 6.521-16.791 8.359-23.628 8.75-13.916.796-42.369-6.541-47.931 10.881-5.941 18.619 20.856 28.862 32.793 35.197 16.7 8.865 34.325 14.306 32.063 36.343-.953 9.307-3.131 15.094-8.885 22.785-6.971 9.312-12.809 10.515-23.862 11.494-9.938.878-17.975 4.462-13.666 15.409 2.838 7.206 11.244 13.678 17.447 18.578 14.338 11.334 36.422 20.472 40.313 39.847 1.903 9.481 1.403 16.369-7.647 21.144-8.028 4.234-17.097 5.393-25.663 4.093-8.259-1.253-18.7-2.128-26.087-5.581-9.1-4.253-12.416-13.062-14.756-22.387-2.525-10.035-1.469-18.282-10.757-25.266-6.74-5.069-14.197-8.716-14.347-18.416-.265-17.1 16.054-33.459 20.75-49.128 4.979-16.618-14.112-33.725-22.95-46.453-4.884-7.034-9.653-13.881-10.903-22.237-1.528-10.191 3.328-16.741 9.419-24.653 9.488-12.332 24.128-29.644 20.05-45.879-4.387-17.45-22.497-26.812-30.153-42.496-3.981-8.163-2.572-17.1-3.563-25.907-.968-8.562-4.162-17.722-7.768-25.54-3.578-7.766-6.069-15.363-8.069-23.482-1.941-7.89-5.441-17.284-5.034-25.662.925-19.034 17.887-30.925 35.49-28.422m214.475 819.038c2.763-8.663 16.706-12.15 24.553-13.713 8.103-1.619 15.288-2.841 22.669-3.887 2.338-.335 6.688-2.707 9.05-2.7 6.859.018 60.975-12.7 49.031 12.543-4.062 8.582-15.815 12.047-23.45 15.675-7.984 3.791-13.312 7.675-22.94 8.747-10.072 1.122-66.647 7.581-58.913-16.665m-36.969-59.891c-10.162-27.428 40.029-24.703 53.729-23.769.896.063 3.534.413 3.84.463 2.319.397 8.188.465 9.628.675 18.15 2.672 45.072-2.869 52.613 19.3 7.009 20.603-44.291 20.35-57.416 20.478-16.322.162-55.278 2.047-62.394-17.147m-99.531 127.372c12.822-15.3 40.606-12.191 56.125-13.847 1.197-.128 3.447-1.075 4.622-1.322 12.725-2.641 69.147-10.222 61.375 15.184-6.95 22.713-49.244 11.238-66.653 12.704-11.903 1.003-24.225 5.959-36.309 5.809-9.9-.119-30.147-5.425-19.16-18.528m-36.322-74.05c7.844-8.206 19.963-9.719 30.4-12.263 8.572-2.093 26.807-2.597 33.663-4.109 1.962-.431 5.919 1.197 7.925 1.319 17.95 1.109 50.328 4.409 50.181 28.387-.097 16.181-18.581 14.631-30.444 14.522-12.122-.109-25.009-1.584-37.593-1.981-11.494-.36-76.782-2.185-54.132-25.875m97.9-201.172c5.357-11.15 16.544-7.784 25.719-4.797 4.756 1.547 20.263 7.35 26.259 8.725l8.585 1.319c10.047 2.356 23.725-2.678 34.472-2.638 9.45.032 24.443-.734 30.072 8.582 5.59 9.253-3.294 18.981-11.735 23.284-19.7 10.044-46.594 4.406-68.14 2.459-14.65-1.322-56.091-14.337-45.232-36.934m1.182 76.559c9.865 3.032 17.925 12.816 10.368 21.603-7.165 8.325-19.815 7.425-30.203 7.425-21.3 0-46.378-4.425-66.672-11.721-9.15-3.288-22.109-9.169-23.781-19.932-2.103-13.518 12.434-17.197 23.269-17.197 12.09 0 22.69 1.6 34.178 3.963 6.106 1.253 25.806 3.8 29.044 7.259 1.668 1.782 6.381 3.582 8.581 4.622 4.253 2.003 9.994 2.372 15.216 3.978m-200.244 38.91c-7.481-9.957.772-20.166 10.065-23.91 9.8-3.95 22.85-3.631 32.529.003 5.375 2.016 21.178 11.119 23.696 12.21 2.007.865 7.807 5.175 9.819 6.434 8.322 5.21 21.547 2.947 28.241 11.885 5.769 7.709 7.272 21.718-3.8 24.44-18.706 4.6-45.035-8.84-62.066-16.025-10.959-4.619-30.959-5.019-38.484-15.037m-81.656 93.131c9.603.141 21.603 2.781 30.396 6.384 7.41 3.035 19.847 12.632 23.072 17.344 1.053 1.544 3.707 4.278 5.282 5.281 12.034 7.71 28.615 9.297 40.3 17.972 9.615 7.141 13.396 19.013 1.303 26.113-8.544 5.012-21.713 1.965-31.06.015-24.131-5.028-40.272-22.3-60.568-33.7-9.75-5.478-24.182-12.693-28.675-23.6-5.491-13.334 10.393-15.95 19.95-15.809m103.8-19.838c5.103 9.8 7.953 25.069-6.732 25.05-19.85-.028-42.05-12.865-59.44-21.734-12.375-6.306-53.519-21.025-36.822-40.978 7.5-8.963 20.181-7.372 29.525-4.569 7.422 2.225 8.456 1.975 18.762 6.46 1.219.528 7.872 4.993 9.275 6.768 1.6 2.025 3.15 4.103 5.003 5.897 3.138 3.044 6.791 4.61 10.854 5.794 12.281 3.587 22.859 4.419 29.575 17.312m-70-260.746c2.209-4.616 12.321-5.891 16.993-6.635 16.944-2.709 23.525 9.797 52.578 15.05l13.469 4.125c12.088 1.75 22.841 6.353 33.697 12.541 7.622 4.34 15.431 18.478 8.384 26.237-6.834 7.528-23.075 6.278-31.553 4.166-20.625-5.134-40.018-18.653-60.037-27.103-9.122-3.85-22.038-7.106-29.075-14.535-2.956-3.118-6.635-9.303-4.456-13.846m12.334 48.684c5.597 3.606 15.3 10.687 19.056 13.512 2.853 2.144 13.163 7.897 15.125 9.097 6.078 3.713 13.938 12.888 15.175 21.782 1.51 10.784-7.719 17.184-17.156 18.993-20.119 3.86-38.475-16.306-52.166-28.215-8.25-7.178-18.937-15.338-23.268-25.766-5.197-12.512.79-21.716 14.009-21.816 9.941-.075 21.031 7.129 29.225 12.413m-104.884 54.294c-11.025-12.278-53.747-44.216-22.413-56.75 18.759-7.503 43.328 18.587 54.756 31.003 1.925 2.09 4.435 7.409 6.603 9.244 11.941 10.112 35.516 39.809 9.754 46.721-19.71 5.288-37.791-18.068-48.7-30.218m-70.107-214.716c11.616-12.928 45.925 1.288 54.263 13.378.875 1.269 2.865 3.628 3.919 4.75 2.553 2.719 6.884 5.906 9.99 7.631 7.816 4.341 19.063 11.875 24.213 19.322 5.356 7.753 4.472 22.135-4.6 26.244-9.613 4.35-20.888-4.353-28.388-9.581-8.247-5.741-16.725-10.697-24.972-16.535-10.418-7.368-48.831-29.175-34.425-45.209m9.197 251.153c-7.822-8.694-15.937-18.419-16.969-30.547-1.034-12.137 9.704-16.393 21.107-14.309 11.481 2.094 20.912 12.066 27.725 20.956 5.928 7.738 13.393 13.228 18.503 21.66.34.565 5.615 8.743 5.922 9.328 2.634 5.028 6.972 8.475 10.543 13.228 5.885 7.831 11.382 18.99 8.466 29.062-4.306 14.869-17.628 13.216-27.075 5.41-18.447-15.241-32.378-37.166-48.222-54.788m-59.234-8.09c10.037 2.231 18.709 10.862 25.25 18.375 6.469 7.431 17.059 16.853 20.959 23.25.66 1.078 1.322 3.568 1.978 4.65 5.319 8.709 9.26 14.54 15.994 22.412 8.063 9.431 17.069 20.669 9.113 33.006-6.941 10.76-19.441 6.922-28.407.169-19.325-14.566-30.85-33.987-46.684-52.462-8.128-9.485-18.422-17.829-20.5-30.875-2.128-13.369 10.341-21.182 22.297-18.525m-35.61-216.975c16.16-9.669 46.766 12.837 48.154 30.859l5.281 8.581c4.494 10.263 14.431 12.919 17.322 24.985 1.993 8.325-.178 19.6-8.082 24.509-17.912 11.125-38.587-18.772-46.865-30.494-8.797-12.459-36.385-46.125-15.81-58.44m9.866 96.871c.309 1.01 1.947 2.504 2.641 3.3 11.303 13.022 25.756 43.744 7.887 55.96-11.981 8.194-21.959-5.303-27.525-14.406-5.881-9.619-13.156-17.916-17.162-28.5-7.763-20.482-27.457-49.291-9.31-62.475 13.244-9.625 38.297 29.175 43.469 46.121m791.697 158.2c-12.872 4.807-25.978 7.972-39.322 10.841-9.834 2.116-22.947 3.853-32.187-1.106-8.038-4.31-11.235-13.753-6.879-21.838 4.31-8.003 15.11-11.472 23.219-13.809 6.806-1.963 14.294-2.241 20.625-3.134l3.741-.66c4.559-.14 8.8-2.872 12.975-4.187 9.95-3.138 21.14-6.041 31.881-5.713 5.288.16 10.703 2.075 12.534 7.485 1.225 3.625.5 8.375-1.053 11.834-1.959 4.359-4.256 8.519-7.925 11.706-5.178 4.485-11.268 6.213-17.609 8.581m-123.656-110.456c-.372-8.744 6.356-16.165 14.303-18.434a195.417 195.417 0 0010.562-3.344c2.007-.7 7.019-1.334 8.8-2.866 1.5-1.29 7.05-2.44 9.022-2.64 2.378-.241 4.46-.525 6.588-1.541 2.04-.972 3.997-1.884 5.959-3.025 5.872-3.412 11.863-6.912 18.097-9.731 9.509-4.3 17.569-10.578 28.056-11.497 4.8-.422 10.372.566 12.772 5.334 2.178 4.347 1.656 9.144-.125 13.594-4.781 11.947-15.937 18.553-25.759 25.91-11.978 8.971-25.428 15.068-39.263 20.618-5.828 2.338-11.703 4-17.878 4.95-5.053.778-10.269 1.55-15.122.325-7.781-1.968-15.659-9.272-16.012-17.653m10.418 247.991c1.257-11.51 15.185-16.66 24.566-18.519 5.297-1.053 15.619-2.556 22.803-4.753 2.006-.613 5.063-3.772 6.903-4.778 8.385-4.585 15.394-8.897 25.085-10.916 8.718-1.815 27.262-1.087 33.5 6.781 15.828 19.982-35.36 36.522-46.835 40.285-12.234 4.009-68.615 15.575-66.022-8.1m-189.196-343.431c8.631 1.262 16.64.953 24.884.971 16.669.041 33.859 4.041 50.706-.096 8.91-2.188 17.681-5.782 26.778-7.694 8.941-1.885 18.322-3.594 26.941-5.856 16.291-4.282 30.625-13.75 46.966-18.557 34.337-10.106 66.868-24.287 97.003-43.418 15.203-9.654 26.909-23.988 36.975-38.688 4.872-7.116 12.903-12.019 17.09-19.887 3.807-7.141 7.688-14.71 11.444-21.907 7.8-14.94 17.05-28.503 21.944-44.35 4.203-13.6 18.531-33.168 34.053-35.259 6.466-.869 17.253-1.344 14.059 8.325-2.29 6.919-8.575 12.572-10.056 19.994-2.594 13 4.428 22 7.234 23.734.882-.2 5.691 3.097 10.954 9.572 2.103 2.587 4.406 9.078 6.603 11.587 1.306 1.491 3.347 5.922 4.987 7.213 5.619 4.416 12.938 7.406 19.303 10.462 5.738 2.76 17.663 5.538 16.21 13.557-1.016 5.609-12.407 11.968-17.091 15.612-5.637 4.391-12.447 10.938-19.153 12.622-7.244.563-6.672-9.628-9.991-15.056-3.259-5.325-7.628-9.663-11.806-14.141-4.925-5.278-13.959-10.097-21.384-6.737-5.607 2.54-10.372 11.622-14.147 16.009-10.331 11.994-20.15 23.225-31.475 34.513-11.831 11.796-25.194 21.862-37.928 32.806-7.088 6.087-13.825 12.315-20.007 19.519-2.931 3.412-5.143 6.671-7.7 10.259-3.643 5.119-7.496 5.409-13.137 7.294-17.884 5.978-34.181 15.887-49.959 24.437-17.135 9.285-35.979 13.456-54.107 19.985-34.409 12.393-71.747 16.465-108.75 14.678-16.54-.8-33.24-3.85-49.368-6.372-8.832-1.381-16.338-3.638-24.888-4.388-8.087-.709-17.5-2.072-24.937-5.859-6.266-3.191-12.491-9.159-19.497-10.625-4.053-.85-8.191-.372-12.188-1.588-4.025-1.225-7.634-3.271-11.612-4.496-7.322-2.26-15.357-3.391-22.557-6.738-8.978-4.172-12.965-13.819-6.859-22.425 5.225-7.369 13.059-11.412 21.975-12.319 9.378-.947 15.434 3.353 23.056 7.819 15.857 9.297 35.066 14.331 53.078 19.044 8.794 2.3 17.857 5.203 26.354 6.444m401.246-44.766c2.663 1.712 6.919 2.816 9.891 3.953 3.591 1.369 6.569 3.625 10.009 5.272 4.397 2.1 9.088 3.159 13.304 5.306 3.365 1.716 7.096 3.441 10.403 5.319 3.556 2.019 7.925 3.894 10.231 7.481 2.303 3.581.319 9.194-2.684 11.894-3.5 3.147-8.216 4.556-12.435 6.431-3.612 1.6-7.128 3.138-11.006 3.947-4.063.847-8.006 1.697-12.275 1.491-4.681-.228-7.797-1.653-11.491-4.347-6.165-4.481-11.112-10.213-16.997-15.016-5.887-4.809-12.715-7.497-19.096-11.222-7.272-4.247-11.379-10.293-10.557-18.925.719-7.572 6.232-15.309 10.788-21.115 4.619-5.885 9.684-11.125 15.84-15.463 5.341-3.762 14.044-8.019 19.857-3.094 2.5 2.122 3.259 6.694 3.256 9.747-.003 1.907-.828 9.525-3.088 9.463l-2.64 5.281c-2.181 3.875-6.947 9.972-1.31 13.597m82.379 133.766c1.559 3.296-4.697 5.912-6.888 8.775-2.812 3.675-5.416 7.265-8.762 10.412-3.291 3.088-5.775 6.428-9.638 8.913-2.387 1.534-7.159 4.893-8.912 5.85-1.538.84-3.507 3.925-4.619 5.281-1.638 1.984-4.903 5.378-7.253 7.012-2.25 1.563-3.9 3.578-5.95 5.447-3.991 3.638-7.607 7.76-10.975 11.881-3.325 4.072-4.916 10.144-3.563 15.266 1.406 5.341 7.122 8.9 11.638 11.481 10.443 5.963 23.615 6.766 34.981 9.241a197.667 197.667 0 0121.384 5.931c6.007 2.035 9.047 7.05 7.582 13.281-1.263 5.397-7.119 9.832-11.21 13.538-4.872 4.419-9.409 9.466-12.534 15.178-6.322 11.566 4.109 22.738 1.653 33.997-1.359 6.222-5.447 10.709-11.563 11.234-5.553.472-11.965 1.094-17.493-.065-5.525-1.163-10.66-4.86-13.11-10.178-2.612-5.672-.497-12.935 1.56-18.482 2.29-6.19 7.056-10.19 10.487-15.506 1.191-1.847 2.475-5.541.756-7.625-1.084-1.316-5.531-2.612-7.028-3.597-10.262-6.753-20.706-12.175-29.562-20.819-8.081-7.89-11.306-24.221-13.016-35.025-1.915-12.131-.847-23.528 1.406-35.571 1.182-6.285 3.535-11.857 6.166-17.932 2.025-4.675 7.153-11.593 4.044-16.322-2.735-4.156-8.85-7.309-12.878-10.068-5.022-3.432-10.619-6.36-15.085-10.569-6.081-5.728-18.765-22.338-13.3-31.266 2.682-4.387 11.16-7.662 15.791-8.593 5.55-1.119 12.247-.185 16.891 3.065 4.462 3.119 6.756 8.916 9.509 13.441 3.153 5.181 5.781 10.447 10.653 14.122 9.9 7.472 22.622 10.593 34.322 13.531 11.372 2.853 29.731-5.378 34.516 4.741m225.881-164.691c6.078-6.781 15.072-11.375 23.925-13.078 4.528-.869 8.622-.897 13.2-.494 4.444.391 9.647.581 13.9 1.963 7.856 2.553 14.806 7.221 20.297 13.462 2.497 2.834 3.89 6.847 6.053 9.988 2.456 3.565 4.331 7.084 5.434 11.287 1.494 5.703 1.21 11.891-1.712 17.147-3.035 5.453-9.244 11.178-15.8 7.919-3.269-1.625-5.907-5.025-6.425-8.703-.403-2.916 1.312-5.5 1.312-8.51l-.981-2.947c.169-.072.309.282.347-.165-.878-2.288-.844-5.063-1.785-7.397-1.1-2.713-2.75-4.825-5.106-6.638-4.597-3.528-10.206-4.6-15.712-4.59-6.075.015-14.644 2.131-18.294 7.497-3.459 5.087-3.253 11.603-.728 17.153 2.819 6.2 8.809 9.984 15.269 11.325 5.571 1.159 10.962 2.118 14.909 6.54 1.887 2.1 3.631 5.11 3.047 8.025-.685 3.394-4.147 6.535-6.994 8.15-6.309 3.588-14.653 3.463-21.741 2.172-3.615-.659-7.287-2.178-10.665-3.728-3.306-1.519-6.694-2.85-9.338-5.444-4.687-4.603-9.412-9.934-11.587-16.375-5.188-15.365-1.831-32.281 9.175-44.559m2441.82 75.6c-4.487-5.084-32.487 5.162-38.3 7.084-27.262 9.013-60.146 3.885-88.696 3.735-28.057-.144-56.607 2.522-83.422-.15-11.247-1.119-27.591-9.282-36.285.15-4.375 4.743-6.437 12.131-10.8 17.409-4.653 5.622-9.622 10.656-14.525 16.084-8.597 9.516-16.378 22.013-29.025 23.01-12.143.959-29.634 3.697-43.037 2.334 3.194-6.344 4.309-15.556 8.669-20.769 4.668-5.575 12.443-10.325 17.668-15.89 8.228-8.775 32.091-26.131 29.553-39.65-20.35-3.447-43.596-6.181-64.121-7.216-10.172-.509-20.85 2.2-30.8 2.731-6.313.335-11.041-1.546-16.704 1.01-4.221 1.906-8.912 6.572-12.587 9.29-23.213 17.172-35.009 39.816-47.506 64.488-3.138 6.194-5.957 12.659-9.238 18.659-4.659 8.497-7.694 8.225-16.944 9.482-12.215 1.662-29.162 10.203-41.281 6.012 8.825-22.153 19.4-42.378 34.281-61.456 7.269-9.319 13.569-19.603 20.841-28.344 5.519-6.631 24.263-21.703 22.991-30.497-14.769-.812-27.566-2.45-42.116-3.675-11.759-.987-27.578-4.572-38.728 1.1-35.9 18.247-62.244 50.181-88.478 79.06-20.75 22.843-32.388 48.421-46.185 74.725-4.8 9.153-4.643 10.731-14.962 11.487-7.463.547-13.341 1.619-20.244 3.328-4.169 1.031-16.209 6.047-19.209.878-1.822-3.143 5.306-15.878 7.081-19.168 8-14.825 17.853-27.838 25.066-42.444 7.906-16.016 17.59-29.756 28.453-43.813 9.106-11.775 20.462-23.534 31.44-33.681 9.135-8.444 38.416-22.962 37.938-36.6-10.691-2.531-30.825 3.625-41.428 7.988-32.085 13.193-67.41 36.631-92.885 59.896-23.581 21.529-48.709 41.391-70.415 65.107-9.716 10.615-15.788 24.806-22.219 37.65-2.2 4.384-5.25 15.856-8.759 18.528-3.828 2.915-15.503 1.112-20.288 1.65-8.25.925-13.797 4.665-13.253-6.16.331-6.503 5.266-14.15 7.975-20.156 6.734-14.922 12.628-29.587 20.925-43.806 18.616-31.913 38.434-60.503 67.966-83.028 12.587-9.6 26.625-16.9 39.584-25.694 14.094-9.569 41.694-20.031 44.625-24.425 2.928-4.391-16.875-.003-25.234-.003-36.197 0-68.419 11.697-102.25 24.866-32.625 12.7-62.272 28.15-86.107 54.812-11.596 12.975-20.309 26.694-27.287 42.619-7.872 17.944-21.275 32.459-31.044 49.356-13.406 23.178-2.194 58.481-32.328 69.509-26.047 9.535-52.991 17.938-80.266 25.504-31.278 8.675-63.94 16.581-92.243 33.446-15.525 9.25-31.432 13.797-48.469 18.479-13.625 3.743-28.563 3.893-42.184 7.731-13.632 3.84-31.266 13.828-29.904-7.706.963-15.185 3.319-30.304 7.872-44.888 4.869-15.581 11.56-30.806 14.15-46.647 2.091-12.756 4.672-26.912 11.625-38.725 8.007-13.615 26.26-20.99 38.503-29.025 12.463-8.181 23.432-18.197 37.163-24.447 27.647-12.593 50.041-31.793 73.031-51.247 13.11-11.093 23.797-23.109 34.128-36.965 6.116-8.2 19.753-22.938 18.375-34.216-19.781-.784-41.722 13.416-61.478 18.375-17.687 4.441-50.306 14.503-67.775 7.016l-11.44-4.4c2.612-3.438 5.543-17.097 7.903-23.391 22.322 4.819 52.215-3.534 74.812-11.153 22.906-7.722 50.735-14.4 69.55-30.587l7.26-10.544c2.787-7.219 6.509-16.106 6.625-23.778.109-7.382 2.6-10.61 4.6-18.488 3.531-13.919 6.237-29.69 5.103-43.915-3.647 2.284-6.188 5.718-9.46 8.49-10.253 8.703-22.162 15.694-33.247 23.519-11.518 8.125-22.065 17.147-35.406 22.491-12.615 5.059-26.772 9.562-39.7 13.134-9.915 2.741-26.956 11.478-37.45 6.931 2.338-9.453 3.278-22.181 6.65-30.65 3.241-8.153 16.878-9.85 25.547-12.537 17.838-5.532 34.069-7.594 50.144-17.585 12.778-7.943 22.922-20.328 35.056-29.728 11.513-8.922 21.238-15.712 29.903-27.528 8.075-11.019 16.322-23.087 21.56-35.628 3.659-8.763 15.237-31.247 9.268-39.469-9.515 4.828-19.05 16.969-27.797 23.628-12.237 9.322-21.068 13.01-35.378 16.703-15.109 3.9-27.531 8.975-43.131 9.929-6.656.403-16.878 2.646-19.162-3.969-1.075-3.119 2.084-18.422 4.428-21.116 5.584-6.428 29.125-9.222 38.503-12.965 13.022-5.2 25.894-6.316 38.684-11.882 14.46-6.3 24.447-17.5 37.006-25.968 11.197-7.55 23.163-21.113 29.929-32.804 7.593-13.131 8.8-25.784 12.275-39.656 2.696-10.756 7.621-38.519 1.634-40.353-5.988-1.831-20.513 16.353-33.253 22.578-11.719 5.722-23.447 11.519-35.225 16.944-4.85 2.231-10.872 7.334-16.725 6.162-8.353-1.675-4.194-8.715-3.522-15.843 1.769-18.725 13.147-16.722 27.284-23.06 12.003-5.381 24.828-13.147 35.869-19.384 10.653-6.016 27.331-11.447 35.231-21.125 9.025-11.063 2.966-29.288 3.716-42.05.837-14.266 4.628-28.234 5.281-42.206.685-14.772-.697-28.938-.881-43.169-.2-15.597 6.525-27.538 5.147-42.822-21.385 11.55-41.003 23.678-59.516 39.541-8.247 7.065-15.081 15.503-21.081 24.6-6.097 9.243-13.659 15.05-22.294 22.297-10.084 8.468-19.125 17.531-28.956 26.09-4.531 3.944-12.156 9.388-13.247 15.713-1.05 6.109 4.925 11.99 8.094 17.584 5.181 9.15 18.631 27.659 16.575 38.7-1.744 9.359-20.153 29.544-28.235 34.453-7.287-8.487-7.928-23.925-10.709-34.259-1.469-5.463-2.522-12.541-6.628-16.891-7.009-7.419-9.669-2.54-15.888 3.538-16.743 16.372-37.368 33.559-50.343 52.747-14.21 21.018 7.15 55.784 18.24 75.034 3.447 5.975 5.922 11.991 8.36 18.262 3.409 8.757 4.637 10.041-1.291 17.597-8.212 10.466-12.481 21.863-15.8 34.285-7.428-10.822-7.725-24.538-14.15-35.822-3.447-6.056-9.403-11.541-12.303-17.778-2.997-6.457-3.816-13.907-6.603-20.482-1.9-4.493-5.138-13.212-8.8-16.55-7.235-6.59-8.663-1.6-13.666 4.244-10.231 11.95-21.397 21.86-30.753 34.547-9.484 12.859-6.803 23.859-3.131 38.709 3.6 14.585 7.681 29.797 12.106 44.007 8.241 26.472 23.1 51.112 38.831 73.928-4.693 5.203-5.859 7.481-9.872 13.984.025-.025-5.815 7.553-6.959 8.603l-5.259 6.463c-10.422-4.756-19.232-23.178-23.982-33.228-4.434-9.388-9.262-18.61-12.981-28.432-4.662-12.315-8.206-26.121-11.469-38.587-2.39-9.147-4.762-32.616-15.865-36.2-9.878-3.191-17.769 21.844-21.95 29.266-7.125 12.625-18.531 21.734-20.272 37.625-2.953 27.028 10.2 51.718 19.606 75.696 11.244 28.669 29.831 47.71 53.466 66.032l10.784 11.222c2.085 4.193-11.519 20.9-15.331 23.6-5.522 3.915-6.416 1.587-11.056-2.494-3.953-3.481-8.025-6.935-11.913-10.578-14.715-13.785-27.206-26.294-39.078-42.713-9.209-12.731-16.162-26.322-22.944-40.447-3.39-7.065-6.659-14.687-9.75-21.915-3.453-8.066-4.262-16.566-8.55-24.028-20.278 7.928-30.381 32.621-36.34 51.903-7.013 22.684-.572 40.893 4.972 62.709 5.365 21.119 12.1 40.628 20.115 61.391 7.603 19.722 19.625 39.081 30.035 57.412 5.153 9.069 10.703 17.578 16.668 25.75 6.732 9.216 15.272 17.344 21.669 26.438 6.766 9.622-1.437 16.59-6.006 25.031-5.303 9.791-7.7 20.75-12.197 31.075-8.988 20.612-13.728 41.2-21.291 62.034-8.437 23.241-18.722 49.772-37.643 66.703-9.504 8.507-15.982 15.204-29.029 16.488-10.609 1.044-21.456 2.034-32.343 2.625-23.61 1.291-46.128-4.719-69.278-2.653-11.563 1.031-22.904 3.897-33.204 9.769-9.737 5.546-16.996 12.437-26.212 17.987-13.422 8.088-20.191-.269-28.563-10.562-7.946-9.772-16.79-19.644-24.143-29.722-6.8-9.316-13.072-19.341-20.432-27.907-6.981-8.125-14.096-16.265-19.309-25.565-11.228-20.025-28.306-37.294-27.066-61.391.169-3.319 1.06-6.537.663-9.9l.219-20.025c.009-.697-.11-4.603-.288-5.1.15-3.259-.962-7.687-1.475-14.603-.578-7.906 2.494-15.012 4.831-22.422 2.638-8.362 4.929-16.547 7.844-24.765 6.05-17.044 13.041-34.429 19.55-51.391 5.141-13.397 10.569-27.359 15.744-41.05 5.341-14.128 12.131-27.363 17.506-41.344 3.156-8.206 5.472-15.85 5.819-24.675.291-7.275-.647-16.172 5.697-21.434 2.956-2.453 8.372-3.85 11.906-5.269 4.206-1.691 8.081-3.712 12.228-5.709 7.881-3.797 14.116-8.732 20.775-14.322 7.563-6.347 15.131-11.606 19.731-20.906 3.216-6.507 5.891-15.754 6.238-22.985.378-7.9-1.278-15.078-2.656-22.434-1.472-7.913-2.472-14.822-7.369-21.575-8.928-12.303-24.488-18.516-38.931-21.31-39.01-7.54-78.491 5.96-91.013 47.297-3.587 11.844-4.272 22.897.122 34.753 3.166 8.544 8.559 15.869 13.872 23.097 4.866 6.619 12.491 12.085 15.416 20.022 2.384 6.466-1.329 15.338-2.85 21.222-2.257 8.744-6.704 16.263-9.947 24.919-5.532 14.772-13.31 29.087-18.788 44.075-4.915 13.44-8.731 28.184-14.869 41.025-2.337 4.887-6.678 8.737-9.225 13.569-1.709 3.243-3.1 6.362-4.621 9.559-3.591 7.528-5.785 14.672-8.341 22.544-2.55 7.847-6.944 15.309-11.819 21.553-6.772 8.665-11.9 2.197-16.365-5.075-7.21-11.731-12.719-25.197-20.032-36.822-7.706-12.259-13.859-26.044-23.428-37.331-8.565-10.103-15.475-21.713-23.644-32.1-8.993-11.441-14.153-24.853-22.018-36.991-8.163-12.603-19.707-23.087-28.625-34.862-1.207-1.594-4.763-5.944-4.838-7.904-.119-2.925 3.535-6.578 5.094-8.809 4.066-5.825 6.1-12.481 9.328-18.794 7.859-15.362 12.247-31.6 10.569-48.872-.747-7.693-1.766-15.831-4.069-23.321-2.362-7.688-21.75-20.741-25.497-21.744-5.875-1.572-20.415-4.472-25.881-3.638-6.156.941-24.591 3.094-27.747 3.938-2.166.581-24.022 10.797-24.237 12.981-1.182.369-11.279 7.956-14.932 11.531-2.812 2.753-4.9 7.932-6.578 11.453-3.556 7.457-5.406 16.944-6.272 24.191-3.2 26.806 11.803 55.478 37.86 67.431 12.153 5.575 26.984 5.644 40.143 8.291 2.875.575 7.691.166 10.11 1.284 2.653 1.228 5.059 5.61 6.625 7.91 3.869 5.69 7.428 11.747 11.003 17.637 7.306 12.035 16.15 22.235 22.347 35.303 2.994 6.313 6.494 13.382 8.8 19.366 2.225 5.769 5.287 11.803 7.569 16.181l9.131 25.047c.84 2.703.265 6.35.662 9.272.488 3.625 1.182 7.141 2.563 10.587 2.347 5.835 5.819 11.372 8.922 16.86 2.856 5.05 6.909 9.572 9.984 14.569 3.209 5.218 6.122 10.759 9.225 16.156 3.638 6.325 8.756 11.553 12.963 17.678 3.878 5.641 7.69 11.303 11.212 17.237 7.319 12.313 16.331 21.907 25.994 32.254 4.134 4.425 8.447 9.481 6.934 15.934-1.406 5.966-8.409 9.159-14.194 9.497-12.587.734-25.356.097-38.059-.513-6.891-.331-13.244-1.612-20.047-1.981-7.872-.425-16.306-.8-24.009-1.725-14.2-1.706-28.5-4.744-42.641-6.856-13.175-1.969-26.494-3.041-39.615-5.006-6.391-.96-12.7-2.625-19.141-3.647-3.197-.507-16.009-1.775-17.222-4.566l-1.062-.403c-1.941-.284-6.032-2.156-7.46-3.944l-4.694-1.144c2.441-7.875 1.285-16.659.891-24.743-.466-9.532-4.116-18.225-9.572-26.028-3.756-5.379-6.687-10.96-11.887-15.191-5.663-4.609-12.347-8.269-18.941-11.244-7.444-3.362-14.453-5.656-22.687-5.306-7.707.328-16.885-.394-24.379 1.441-10.484 2.568-19.946 8-29.759 12.065-6.603 2.738-12.762 6.263-18.525 10.516a48.396 48.396 0 00-9.037 8.669c-11.566-6.744-24.038-15.163-29.744-17.788-14.15-6.506-36.422-16.359-45-28.284-8.203-1.425-13.075-9.782-19.556-13.775-6.138-3.782-14.882-7.182-21.532-10.816-16.353-8.947-31.059-13.069-45.056-26.128-24.344-22.697-27.487-66.569-40.859-96.703-13.878-31.275-32.916-54.485-57.953-78.66-25.41-24.54-46.76-46.359-79.197-61.975-30.66-14.756-61.694-29.365-92.785-39.321-29.328-9.391-60.337-38.719-137.756-37.913-24.522.256-39.387 16.547-55.116 19.509-28.809 5.425-72.731-34.99-99.893-50.809-29.466-17.162-56.082-38.834-86.053-54.831-30.616-16.338-62.116-28.35-93.069-43.631-15.885-7.841-32.128-16.854-48.513-23.825-12.422-5.288-59.425-31.291-59.425-31.291-16.459-5.425-34.306-14.006-50.518-20.634-15.013-6.135-83.835-28.872-93.007-31.066-14.409-3.447-117.493-17.488-153.809-26.344-41.55-10.137-82.438-15.625-124.066-24.115-20.262-4.132-40.622-8.719-60.856-11.513-21.037-2.906-43.053-1.7-64.044-4.844-74.722-11.19-152.065-22.387-228.728-26.19-39.106-1.938-79.481-1.875-118.294.037-18.496.91-37.521 1.416-55.175 3.378-13.553 1.51-37.343-1.347-46.521 4.322 0 0-33.532 9.447-34.522 14.338-1.763 8.697 20.025 2.468 28.968 4.937 9.704 2.678 18.638 5.847 28.397 7.753 9.007 1.76 18.547 3.982 26.513 6.944 8.39 3.125 15.809 7.844 24.106 10.344 7.341 2.209 18.938 3.065 21.609 11.247 1.691 5.178.013 8.781 3.86 13.428 3.044 3.681 6.769 5.475 10.956 6.809 9.734 3.103 20.444 3.969 30.9 5.553 9.797 1.488 19.153 4.444 28.366 7.547 10.24 3.447 25.631 5.638 34.353 12.519-6.094 3.381-57.981 9.85-53.966 19.444 2.385 5.706 21.388 6.275 26.372 6.962 10.266 1.416 19.181.825 28.416 5.678 15.706 8.257 32.94 28.591 10.99 41.672-16.734 9.975-40.131-4.153-55.425-12.347-19.581-10.487-37.893-21.165-59.265-29.647-21.797-8.653-44.635-16.368-67.291-22.04-20.822-5.21-39.309-16.322-59.916-22.119-9.296-2.616-17.353-6.978-26.512-9.828-10.269-3.197-20.094-5.259-30.25-8.953-20.831-7.569-40.725-16.481-61.738-23.781-20.237-7.035-41.337-12.354-60.978-20.694-21.587-9.172-44.818-16.441-67.118-23.744-21.482-7.034-39.438-18.737-60.675-25.925-40.394-13.675-80.182-30.797-121.122-42.753-16.503-4.822-34.741-10.719-51.872-12.363-8.86-.85-17.644-2.353-26.578-3.118-7.878-.675-17.578-7.566-23.95-2.825-9.322 6.934 12.065 14.293 20.862 18.443 8.747 4.132 16.066 9.882 24.075 14.663 15.869 9.472 31.172 22.016 48.188 29.497 18.875 8.297 35.95 19.322 55.562 25.928 20.356 6.856 38.35 17.428 58.016 25.431 43.675 17.778 87.047 34.488 132.159 49.403 44.897 14.847 90.072 32.691 136.41 45.222 23.434 6.341 45.178 18.231 67.315 27.488 21.403 8.95 44.775 14.818 65.56 24.678 17.565 8.337 35.037 18.7 53.078 26.565 9.193 4.007 16.684 7.46 22.24 16.054 4.032 6.234 11.725 19.903-.29 20.025-13.622.143-28.41-7.25-41.225-12.032-12.669-4.731-25.144-10.268-37.538-15.453-25.175-10.534-50.444-22.375-76.009-30.853-30.347-10.062-60.756-18.075-90.197-30.562-26.128-11.075-53.981-16.566-80.422-26.079-23.409-8.425-47.025-17.571-70.816-25.312-24.978-8.125-48.94-18.9-74.05-27.253-27.187-9.044-54.437-18.66-82-25.688-13.853-3.528-27.878-5.262-42.115-7.234-8.26-1.138-25.019-6.05-32.238-1.681-10.159 6.15 12.628 11.543 17.282 13.253 9.45 3.469 19.093 7.644 29.125 11.394 23.687 8.85 44.068 23.818 67.525 33.075 32.453 12.809 65.312 25.637 96.812 40.093 33.944 15.582 69.659 26.144 103.622 41.844 68.887 31.841 140.744 62.584 212.369 83.478 22.762 6.641 46.875 13.503 69.762 20.853 21.772 6.991 46.731 14.688 66.088 27.797 6.781 4.594 20.328 17.969 6.928 22.963-10.325 3.847-26.288-1.082-36.613-3.857-15.728-4.234-30.506-11.921-45.818-17.718-22.71-8.597-46.672-12.782-69.35-21.144-41.185-15.188-84.894-22.828-125.485-39.266-33.012-13.365-65.287-29.268-97.965-42.718-21.994-9.054-45.044-19.444-67.579-26.685-21.562-6.928-59.265-21.606-67.075-13.506-3.453 3.584 19.388 16.412 28.182 22.769 10.215 7.381 22.943 10.24 33.447 17.403 13.762 9.394 28.284 18.394 43.003 26.459 13.731 7.522 27.509 12.578 40.259 21.485 15.35 10.718 28.716 19.262 47.538 23.396 17.828 3.916 33.54 12.585 49.356 20.991 14.431 7.666 30.428 12.009 45.25 18.813 19.506 8.956 39.44 16.959 58.615 26.884 21.385 11.066 44.541 17.794 67.757 24.353 11.547 3.263 25.24 10.825 35.809 12.209l17.875 10.497c9.059 1.994 18.044 7.3 27.725 9.207 9.191 1.812 19.953 3.018 28.747 6.965 20.047 9.01 30.166 28.178 35.981 48.553 11.619 40.682 16.925 82.688 31.978 122.75 16.641 44.278 45.638 78.038 70.632 117.569 11.884 18.797 24.668 38.128 39.612 54.394 17.928 19.515 18.766 29.465-2.378 46.937-14.078 11.635-27.872 23.647-42.188 35.875-17.071 14.578-34.518 25.691-51.046 40.516-14.235 12.769-39.166 26.403-41.654 45.034-1.44 10.769 1.61 31.097 1.638 64.988.053 58.034-.028 116.422-.028 174.269v8.365c-1.322 6.16 1.653 48.538.878 62.488-1.188 21.397 4.462 43.428 4.4 65.134-.063 22.228 1.419 42.338-3.888 63.369-6.634 26.322-20.487 29.547-44.959 31.944-43.028 4.212-84.566-3.569-126.741-8.247-43.575-4.835-87.159-7.319-130.775-11.747-45.55-4.619-89.662 4.665-134.662-2.635-40.319-6.54-72.997-26.953-105.519-53.212-31.434-25.384-60.659-52.078-89.809-80.206-26.935-25.991-54.935-50.375-82.181-74.925-26.638-24.003-64.207-55.585-101.329-42.575-19.787 6.937-39.328 17.112-59.481 25.084-17.715 7.009-37.39 14.625-53.662 25.384 12.247 14.382 38.475 16.488 54.725 22.475 20.022 7.372 35.965 17.266 51.784 30.991 30.722 26.65 66.159 50.644 99.019 75.625 18.553 14.103 36.206 29.019 55.19 42.569 15.572 11.112 38.619 23.609 49.497 38.95 31.969 45.075-54.412 52.047-79.54 61.384-78.347 29.113-158.844 63.25-230.778 105.585-39.872 23.465-79.769 45.121-121.463 64.771-39.706 18.7-77.925 42.766-117.762 59.372-21.863 9.11-39.657 21.785-55.516 39.313-15.788 17.45-30.081 43.653 2.606 44.819 21.222.759 44.703-4.816 64.697-10.822 12.744-3.832 26.4-11.444 39.375-13.2 8.65-1.172 18.163.506 28.013 1.909 8.056 1.147 13.287 4.694 21.031 2.425v-.012c.006 0 .019.006.025.006.059-.019.112-.025.172-.041-.003.028-.003.035-.007.06 2.188.256 12.854.743 13.082.712 73.712-36.291 153.006-77.037 225.793-119.269 74.46-43.193 160.788-67.103 240.241-100.731 39.956-16.912 81.334-16.687 124.141-21.091 43.247-4.446 87.54-4.34 130.703-6.603 44.822-2.35 88.39 5.825 131.953 7.991 46.712 2.325 95.678 3.566 141.334 5.212 93.335 3.375 186.297-.096 278.569-6.6 20.325-1.431 51.097 2.407 68.653-5.284l18.481-4.4c55.282-11.781 104.657-28.169 161.819-28.169 63.019 0 126.447-1.412 186.725-13.697 115.966-23.628 242.066-40.234 360.86-33.831 59.693 3.222 115.196 5.735 172.515 17.56 69.113 14.259 138.891 23.128 205.956 41.856 29.841 8.328 60.754 15.444 89.819 20.194 32.366 5.284 63.819 4.362 95.147 15.056 55.888 19.075 120.816 23.578 179.422 35.687 116.844 24.15 226.681 62.91 350.3 59.76 35.712-.91 70.712-.175 105.616-6.607 34.081-6.278 56.665-1.106 89.768 6.216 27.953 6.188 58.825 13.684 86.175 24.6 14.791 5.906 29.735 11.797 44.097 18.084 12.681 5.547 33.7 11.107 42.641 22.632 12.75-.816 32.147 13.047 44 17.418 13.931 5.141 28.253 8.41 41.859 13.207 25.294 8.912 48.856 23.6 77.069 16.722 23.106-5.638 42.025-23.344 63.716-31.325 24.5-9.022 52.531-10.5 79.259-10.535 27.537-.044 58.5 10.21 82.428 3.706 12.772-21.262-20.419-29.665-34.906-35.781-17.485-7.375-32.638-15.837-49.291-24.637-37.247-19.694-72.669-42.772-111.275-59.028-55.647-23.429-116.137-45.235-173.887-59.904-73.903-18.765-144.157-21.506-221.797-21.506-65.403 0-131.41-1.506-193.631-1.422-25.994.035-64.625 9.997-91.144-.35-31.156-12.153-18.338-48.506-5.725-70.403 13.428-23.315 32.506-44.412 45.772-68.559 12.987-23.65 23.793-51.041 40.053-72.616 16.5-21.9 36.081-40.3 52.006-62.631 12.331-17.288 37.359-39.853 48.806-60.241l22.888-26.4c2.44-1.759 10.356-7.128 15.053-10.387 12.387-8.594 24.709-17.01 37.756-24.625 14.466-8.441 28-18.875 42.466-25.522 13.459-6.184 27.272-8.334 41.15-11.834 14.381-3.625 28.694-9.65 43.103-12.15 62.422-10.822 110.137 43.709 157.597 75.475 25.515 17.075 54.294 31.081 81.831 47.109 24.925 14.509 59.444 19.047 79.041 40.291 9.943 10.778 14.94 24.121 21.297 36.943 6.421 12.95 15.596 24.863 21.806 38.044 12.644 26.844 26.706 57.7 45.99 80.094 20.51 23.815 48.907 41.8 74.982 58.578 13.287 8.55 24.956 15.616 40.337 18.628 8.61 1.688 36.922 16.775 38.522 11.191 1.603-5.588-11.753-22.797-16.562-28.732-18.057-22.306-29.6-40.109-40.288-66.9-10.45-26.193-27.1-52.506-25.594-81.725 2.569-.525 5.219-.5 7.794-1.012 10.088-2.013 32.806-5.688 41.384-1.781 6.647 3.022 4.804 9.443 7.194 15.862 2.46 6.597 6.256 12.069 8.656 18.485 10.541 28.265 20.307 58.059 36.304 83.634 8.653 13.837 19.309 25.856 27.237 40.272 2.456 4.465 6.325 13.275 10.538 16.037 5.078 3.328 15.009 2.238 20.756 2.007 13.131-.532 28.322-3.272 42.444-3.788 12.693-.462 40.487 6.184 42.109.775 1.622-5.412-39.938-41.219-54.238-66.522-7.553-13.362-15.309-26.19-23.934-38.969-6.325-9.362-13.05-21.94-12.216-33.312 13.044-.666 28.488-1.709 41.085.697 14.409 2.756 19.45 6.503 25.456 19.628 5.013 10.944 9.2 20.928 12.516 32.525 3.85 13.444 13.643 21.284 22.909 30.584 9.784 9.816 17.388 21.575 25.263 32.791 7.05 10.037 19.531 26.834 31.268 26.662 6.016-.09 13.885-4.931 20.041-6.618 6.747-1.853 14.269-2.55 21.128-4.335 11.969-3.112 40.484-3.565 41.938-7.881 1.453-4.312-13.166-10.816-18.813-19.687-5.644-8.872-11.406-17.985-18.066-26.119-11.709-14.319-28.881-29.475-34.896-47.444 12.887-.647 25.115-1.603 37.8-2.728 14.1-1.247 17.218 8.05 25.309 18.659 7.766 10.178 16.497 19.969 23.697 30.588 6.994 10.319 12.719 20.772 20.444 30.697 35.196-4.263 103.018-23.66 106.468-27.31 3.45-3.647-20.659-21.984-30.515-32.65-7.885-8.531-23.178-17.74-28.294-27.793 20.069 5.834 42.019 6.821 62.137 12.134-1.071.912-1.412.022-2.375.031l8.8 11.444c2.257 1.331 6.604 5.397 9.875 7.725 8.682 6.178 20.25 24.35 30.61 25.719 11.89 1.565 29.306-6.01 41.369-7.922 25.531-4.047 50.471-7.022 75.696-12.822 19.285-4.434 35.869-13.234 54.588-18.859 9.994-3.007 25.716-1.332 33.884-8.682 12.969-11.656-14.425-16.315-22.481-19.268-10.656-3.904-21.544-7.11-32.528-10.119-14.825-4.06-30.95-5.869-45.125-12.766-11.797-5.74-22.45-13.303-34.747-18.259-9.984-4.022-28.419-13.141-38.109-9.219-11.269 4.566-21.822 20.872-30.785 28.972-12.112 10.947-20.793 10.106-36.068 7.091-6.966-1.372-14.204-2.722-21.138-4.425-9.991-2.454-9.228-2.732-3.303-10.3 8.466-10.816 15.322-21.8 22.887-32.779 6.275-9.112 21.01-16.575 19.866-28.915-25.075-13.438-59.247-14.806-84.341-6.71-12.331 3.982-20.656 14.016-31.493 20.882-13.085 8.29-25.425 18.393-37.994 27.262-6.028 4.25-11.95 7.456-17.431 12.319-7.235 6.422-8.41 6.803-17.775 5.894-12.735-1.228-27.55.309-39.563-1.888 6.428-10.762 14.725-15.347 24.163-23.594 8.747-7.64 15.587-16.762 24.815-23.975 8.903-6.962 17.8-13.043 25.96-20.671 8.362-7.807 21.603-17.157 27.862-26.416-5.09-2.075-10.253-5.456-15.315-7.266-4.357-1.556-8.885-1.312-13.669-2.403-11.453-2.609-23.419-1.581-34.278-1.069-22.369 1.054-43.825 3.204-65.157 9.807-14.04 4.347-27.643 13.247-38.084 23.393-10.981 10.669-24.225 18.338-36.106 28.216-10.291 8.55-19.335 21.691-32.353 22.297-12.669.591-28.041.641-40.441-3.475-11.328-3.763-5.881-6.709 1.716-13.569 5.315-4.794 10.437-8.925 15.934-13.247 12.784-10.05 25.519-20.903 38.638-29.928 12.321-8.475 25.165-15.2 37.937-22.425 11.322-6.403 34.278-14.322 33.044-20.481-1.241-6.163-40.438-15.366-63.01-17.606-20.709-2.057-46.459-3.957-66.703 2.837-10.403 3.488-22.578 11.816-30.781 19.385-10.734 9.909-22.953 16.668-33.469 26.428-8.415 7.812-18.206 24.99-28.556 29.512-10.391 4.535-28.156-3.34-39.1-5.15.063.094.128.163.188.231l-18.894-6.128c12.312-7.681 21.644-18.862 31.815-29.043 9.297-9.304 20.51-14.694 30.607-22.888 9.853-7.994 17.272-17.916 26.147-26.794 9.106-9.118 33.503-17.959 31.834-24.3-1.672-6.337-25.856-2.456-38.638-4.378-26.353-3.962-55.593-1.437-81.659 6.16-13.859 4.037-27.422 9.687-40.728 13.862-13.434 4.216-23.169 12.722-35.141 20.028-24.543 14.981-56.215 21.919-81.678 5.306-22.978-14.99-34.484-22.368-56.219-38.928l-21.431-11.025c-7.687-8.406-28.859-18.397-38.975-27.09-10.178-8.757-20.3-16.772-31.637-23.96-13.341-8.462-27.091-17.459-39.607-25.306-10.428-6.544-24.046-16.922-30.54-27.281 19.359-9.625 41.478-9.756 62.425-13.622 14.734-2.719 30.719-4.372 44.884-9.728 18.013-6.81 37.647-12.8 56.35-17.578 31.241-7.982 62.422-16.338 92.397-27.116 15.131-5.437 32.106-8.034 47.678-13.347 16.353-5.581 32.766-11.972 49.335-16.725 16.596-4.756 32.9-12.894 48.878-19.634 12.172-5.131 28.35-15.047 39.584-3.76 42.709 42.91 85.122 94.682 144.584 113.535 14.244 4.519 29.663 11.434 45.379 12.35 14.334.834 30.362-3.297 45.278-3.96 31.375-1.39 88.362-5.431 91.268-11.396 2.91-5.963-38.287-14.45-59.343-21.169-26.819-8.56-46.882-23.363-69.794-38.725-25.397-17.031-48.666-37.46-73.953-54.113-13.622-8.972-23.372-19.431-4.356-27.262 17.04-7.016 24.931-2.097 39.409 7.903 24.856 17.169 51.225 32.394 76.75 47.506 27.931 16.538 60.078 23.828 88.891 39.388 27.065 14.615 59.781 15.793 88.921 13.268 15.754-1.365 30.225-5.893 45.738-8.796 7.506-1.41 14.797-1.935 22.053-3.354 6.725-1.318 13.022-4.765 20.028-4.087 5.981-4.172 18.428-2.644 21.228-12.038-11.156-6.6-28.253-4.253-40.368-9.618-13.335-5.91-26.472-13.547-38.754-20.094-12.35-6.584-25.409-8.434-38.043-13.175-11.891-4.472-23.672-11.213-35.01-17.581-12.9-7.247-25.412-13.466-38.531-19.757-12.759-6.121-27.912-8.671-39.609-16.75-8.413-5.809-9.257-6.912-2.15-13.2 4.597-4.062 9.272-7.15 15.178-8.609 14.328-3.528 29.334.059 42.028 6.872 26.728 14.344 57.203 16.297 84.694 29.05 13.987 6.484 27.318 13.272 41.412 18.65 11.76 4.491 24.581 7.278 36.044 12.278 12.981 5.659 26.094 14.484 36.941 23.194 12.787 10.265 23.506 11.365 38.068 3.547 13.066-7.016 25.653-14.041 39.391-19.607 11.291-4.581 29.184-11.671 37.756-20.95-18.828-6.875-39.087-12.59-57.978-20.293-27.572-11.244-56.172-18.822-83.619-32.932-12.215-6.278-24.237-11.44-36.79-16.678-8.872-3.703-31.907-13.678-16.213-23.803 4.969-3.206 12.978-2.975 18.653-5.928 5.203-2.712 12.088-9.237 18.51-8.644 6.097.563 13.387 8.26 18.456 11.482 6.747 4.293 13.55 6.925 20.753 10.584 11.725 5.959 22.778 13.725 34.722 18.956 12.987 5.685 27.625 7.097 41.366 11.369 24.728 7.684 49.175 19.634 73.253 28.844 15.578 5.962 23.734 6.259 37.843-1.978 10.747-6.275 19.857-15.75 30.613-22.222 8.997-5.416 29.978-18.569 11.441-25.332-12.635-4.606-24.747-7.484-36.966-13.4-12.425-6.015-24.2-14.156-37.166-18.284-7.887-2.512-38.553-1.966-33.115-15.884 9.034-1.832 15.259-6.96 22.928-11.36 9.515-5.462 13.747-.747 23.634 2.378 26.019 8.216 52.435 16.057 75.841 31.491 6.278 4.138 10.172 7.891 17.409 5.494 6.044-1.994 15.381-9.353 20.441-13.128 11.3-8.428 22.165-17.228 33.253-25.772 13.125-10.11 27.031-19.672 37.844-32.172 9.287-10.731 18.256-21.756 27.99-31.878 3.828-3.978 26.113-27.681 21.553-32.847" fill-rule="nonzero"/></svg>